<?xml version="1.0" standalone="no"?>
<!DOCTYPE svg PUBLIC "-//W3C//DTD SVG 1.1//EN" "http://www.w3.org/Graphics/SVG/1.1/DTD/svg11.dtd" >
<svg xmlns="http://www.w3.org/2000/svg">
<metadata>
Created by FontForge 20120731 at Sat Apr  1 18:11:42 2017
 By admin
</metadata>
<defs>
<font id="iconfont" horiz-adv-x="1024" >
  <font-face 
    font-family="iconfont"
    font-weight="500"
    font-stretch="normal"
    units-per-em="1024"
    panose-1="2 0 6 3 0 0 0 0 0 0"
    ascent="896"
    descent="-128"
    x-height="792"
    bbox="0 -212 1091 896"
    underline-thickness="0"
    underline-position="0"
    unicode-range="U+0078-E9A9"
  />
<missing-glyph 
 />
    <glyph glyph-name=".notdef" 
 />
    <glyph glyph-name=".notdef" 
 />
    <glyph glyph-name=".null" horiz-adv-x="0" 
 />
    <glyph glyph-name="nonmarkingreturn" horiz-adv-x="341" 
 />
    <glyph glyph-name="x" unicode="x" horiz-adv-x="1001" 
d="M281 543q-27 -1 -53 -1h-83q-18 0 -36.5 -6t-32.5 -18.5t-23 -32t-9 -45.5v-76h912v41q0 16 -0.5 30t-0.5 18q0 13 -5 29t-17 29.5t-31.5 22.5t-49.5 9h-133v-97h-438v97zM955 310v-52q0 -23 0.5 -52t0.5 -58t-10.5 -47.5t-26 -30t-33 -16t-31.5 -4.5q-14 -1 -29.5 -0.5
t-29.5 0.5h-32l-45 128h-439l-44 -128h-29h-34q-20 0 -45 1q-25 0 -41 9.5t-25.5 23t-13.5 29.5t-4 30v167h911zM163 247q-12 0 -21 -8.5t-9 -21.5t9 -21.5t21 -8.5q13 0 22 8.5t9 21.5t-9 21.5t-22 8.5zM316 123q-8 -26 -14 -48q-5 -19 -10.5 -37t-7.5 -25t-3 -15t1 -14.5
t9.5 -10.5t21.5 -4h37h67h81h80h64h36q23 0 34 12t2 38q-5 13 -9.5 30.5t-9.5 34.5q-5 19 -11 39h-368zM336 498v228q0 11 2.5 23t10 21.5t20.5 15.5t34 6h188q31 0 51.5 -14.5t20.5 -52.5v-227h-327z" />
    <glyph glyph-name="youhui" unicode="&#xe601;" horiz-adv-x="1000" 
d="M898 498v0v0zM77 295v0v0v0zM930 240v0v0v0zM943 272q0 12 -7 23v0l-45 71l27 80v0q2 6 2 14q0 11 -5 21q-6 11 -17 17l-72 41l-14 83v0q-1 8 -5 15q-5 10 -15 16t-21 6v0l-84 3l-50 68v0q-7 8 -16 13q-9 4 -20 4q-10 0 -19 -4h1l-76 -36l-76 36v0q-9 4 -19 4t-19 -4
q-10 -5 -16 -13v0l-50 -68l-84 -3v0q-8 0 -15 -3q-10 -4 -17.5 -13t-9.5 -21v0l-13 -83l-73 -41v0q-10 -6 -16 -17q-6 -10 -6 -21q0 -8 3 -14v0l26 -80l-45 -71q-6 -11 -6 -23q0 -9 3 -17q3 -9 10 -15v0l61 -58l-7 -84v-3q0 -15 8 -26q5 -6 10.5 -10t12.5 -6v0l81 -24
l33 -77v0q5 -12 16 -19.5t24 -7.5q4 0 9 1v0l82 17l65 -53v0q6 -5 13 -7.5t14.5 -2.5t15 2.5t13.5 7.5v0l65 53l82 -17v0q4 -1 9 -1q13 0 24 7.5t16 19.5v0l33 77l80 24v0q7 2 13 6q9 6 14 15.5t5 20.5v3v0l-7 84l61 58q6 6 10 15q3 8 3 17zM833 196l8 -100v0v-1q0 -3 -2 -5
q-1 -2 -2 -2.5t-2 -1.5l-97 -28l-39 -92v0q-1 -3 -3.5 -4.5t-4.5 -1.5q-1 0 -2 1v0l-99 20l-77 -64q-2 -1 -3.5 -1.5t-3 -0.5t-3 0.5t-2.5 1.5l-78 64l-98 -20v0q-1 -1 -2 -1q-3 0 -5 1.5t-3 4.5l-39 92l-97 28v0q-1 1 -3 2q-1 1 -2 3t-1 4v1l8 100l-73 69v0q-1 2 -1.5 3.5
t-0.5 3.5t1 5v0l54 84l-32 96q-1 1 -1 3t1.5 4t3.5 3v0l87 51l16 99q0 1 1 3t3 3t4 1l101 4l60 81v0q1 1 3 2t4 1t4 -1v0l91 -43l91 43v0q1 1 3 1t4 -1l4 -2v0l60 -81l100 -4v0h3q2 -1 3.5 -3t2.5 -4l16 -99l87 -51v0q2 -1 3 -3t1 -4v-3l-32 -96l54 -84v0q1 -3 1 -5
t-0.5 -3.5t-2.5 -3.5v0v0zM623 504h-25q-5 0 -8 -5l-207 -356q-3 -5 4 -5h25q5 0 8 5l206 356q3 5 -3 5zM465 356q4 13 4 53t-4 54q-14 40 -60 40t-60 -40q-4 -14 -4 -54t4 -53q14 -40 60 -40t60 40zM377 364q-3 9 -3 45t3 45q6 18 28 18t28 -18q3 -9 3 -45t-3 -45
q-6 -18 -28 -18t-28 18zM604.5 326q-46.5 0 -60.5 -41q-4 -13 -4 -53t4 -53q14 -40 60.5 -40t60.5 40q4 13 4 53t-4 53q-14 41 -60.5 41zM633 187q-7 -18 -28.5 -18t-28.5 18q-2 9 -2 45t2 45q7 18 28.5 18t28.5 -18q2 -9 2 -45t-2 -45z" />
    <glyph glyph-name="search" unicode="&#xe600;" horiz-adv-x="1000" 
d="M173 737q43 49 103 78.5t126 33.5q61 5 121 -13t108 -56q59 -45 94 -112t37 -140q4 -64 -17.5 -125.5t-63.5 -110.5q37 -36 124.5 -123.5l134.5 -134.5q-9 -9 -27.5 -28t-28.5 -28q-26 26 -118.5 118t-142.5 143q-54 -40 -121 -55.5t-133 -3.5q-65 10 -122.5 46t-95.5 89
q-50 69 -60 152q-11 73 11 144.5t71 125.5zM392 809q-31 -5 -41 -8q-64 -16 -116.5 -60t-80.5 -104q-31 -68 -26 -144q4 -72 42.5 -135t99.5 -100q63 -39 140.5 -43t144.5 29q64 31 108 89.5t56 128.5q11 66 -7 129q-18 68 -67 121.5t-114 78.5t-139 18z" />
    <glyph glyph-name="check" unicode="&#xe68f;" 
d="M229 478l220 -220l346 440l94 -94l-440 -534l-314 314z" />
    <glyph glyph-name="ipad" unicode="&#xe664;" 
d="M869 855h-714q-29 0 -49.5 -20.5t-20.5 -49.5v-803q0 -29 20.5 -49.5t49.5 -20.5h714q29 0 49.5 20.5t20.5 49.5v803q0 29 -20.5 49.5t-49.5 20.5zM155 804h714q8 0 13.5 -5.5t5.5 -13.5v-599h-752v599q0 8 5.5 13.5t13.5 5.5zM869 -37h-714q-8 0 -13.5 5.5t-5.5 13.5
v153h752v-153q0 -8 -5.5 -13.5t-13.5 -5.5zM512 97q-20 0 -34 -14t-14 -34t14 -34t34 -14t34 14t14 34t-14 34t-34 14zM512.5 45q-3.5 0 -3.5 3.5t3.5 3.5t3.5 -3.5t-3.5 -3.5z" />
    <glyph glyph-name="left" unicode="&#xe612;" 
d="M342 304l420 383q11 11 11 26.5t-11 26.5t-26.5 11t-26.5 -11l-447 -407q-11 -12 -11 -29t11 -28l447 -408q11 -11 26.5 -11t26.5 11t11 26.5t-11 26.5z" />
    <glyph glyph-name="right" unicode="&#xe6b4;" 
d="M234 6l401 378l-401 377q-12 12 -12.5 29t11 29t28.5 12.5t29 -10.5l433 -408v0l0.5 -0.5l0.5 -0.5h1v-0.5v-0.5l1 -1v0v0l1 -1q0 -1 0.5 -1h0.5v-1q1 0 1 -0.5v-0.5l1 -1v0v0q0 -1 1 -2v-0.5t0.5 -1t0.5 -1v-0.5l0.5 -1l0.5 -1l0.5 -1l0.5 -1v-1v-1l1 -1v0v-1v-1v-1
v-0.5v-1t0.5 -1t0.5 -1v-1v-0.5v-1v-1v-1.5v-1t-0.5 -1l-0.5 -0.5v-1v-1v-1v-1v-0.5v-0.5l-1 -1v-1v-1l-0.5 -1l-0.5 -1l-0.5 -1l-0.5 -1v-0.5t-0.5 -1t-0.5 -1v-0.5q-1 -1 -1 -1.5v-0.5q-1 0 -1 -1v-0.5t-1 -0.5v-1h-0.5h-0.5q0 -1 -1 -2v0v0l-1 -1v0v-1h-1l-0.5 -0.5
l-0.5 -0.5v0l-433 -408q-11 -11 -28 -11t-29 13q-12 12 -11.5 29t12.5 29v0z" />
    <glyph glyph-name="service" unicode="&#xe63e;" 
d="M924.5 383q-7.5 0 -13 5.5t-5.5 12.5q0 107 -52.5 198t-143.5 144t-198 53t-198 -53t-143.5 -144t-52.5 -198q0 -7 -5.5 -12.5t-13 -5.5t-13 5.5t-5.5 12.5q0 117 58 216.5t157 157t216 57.5t216 -57.5t157 -157t58 -216.5q0 -7 -5.5 -12.5t-13 -5.5zM212 125h-53
q-32 0 -55 22.5t-23 55.5v187q0 33 23 56t55 23h53q32 0 55 -23t23 -56v-187q0 -33 -23 -55.5t-55 -22.5zM159 432q-17 0 -29 -12t-12 -30v-187q0 -18 12 -30t29 -12h53q17 0 29.5 12t12.5 30v187q0 18 -12.5 30t-29.5 12h-53zM865 125h-53q-32 0 -55 22.5t-23 55.5v187
q0 33 23 56t55 23h53q32 0 55 -23t23 -56v-187q0 -33 -23 -55.5t-55 -22.5zM812 432q-17 0 -29.5 -12t-12.5 -30v-187q0 -18 12.5 -30t29.5 -12h53q17 0 29 12t12 30v187q0 18 -12 30t-29 12h-53zM615 -7q-9 0 -15 8q-4 6 -2.5 13.5t8.5 11.5l201 132q6 4 13.5 2.5t11.5 -8
t2.5 -13.5t-7.5 -11l-202 -133q-4 -2 -10 -2zM570 -64h-90q-26 0 -44.5 18.5t-18.5 44.5v6q0 26 18.5 44.5t44.5 18.5h90q27 0 45.5 -18.5t18.5 -44.5v-6q0 -26 -18.5 -44.5t-45.5 -18.5zM480 32q-11 0 -18.5 -8t-7.5 -19v-6q0 -11 7.5 -19t18.5 -8h90q12 0 19.5 8t7.5 19v6
q0 11 -7.5 19t-19.5 8h-90z" />
    <glyph glyph-name="repair" unicode="&#xe632;" 
d="M872 149l-224 227q-8 8 -19 8t-19 -8l-16 -15l-39 39l65 66q50 -21 87.5 -12.5t78.5 48.5q35 35 43.5 82t-11.5 87l-92 -91q-7 -7 -17 -7t-17 7l-39 39q-7 7 -7 17t7 17l88 88q-37 12 -79.5 1.5t-73.5 -42.5q-34 -32 -45.5 -62.5t-7.5 -52.5t18 -53q0 -1 -15.5 -18.5
t-31.5 -34.5l-15 -16h-4l-203 203q9 27 -6 42l-33 31l-62 -62l33 -31q3 -2 7 -3.5t16.5 -5t19.5 2.5l197 -200l4 -7l-258 -235l-34 -34q-22 -22 -22 -53t22 -53t53.5 -22t53.5 22l34 34q151 195 218 274l35 -36l-19 -22q-8 -8 -8 -19t8 -19l222 -224q8 -8 19 -8t19 8l69 65
q8 8 8 19t-8 19zM267 125q-7 -7 -17 -7t-17 7t-7 17t7 17t17 7t17 -7t7 -17t-7 -17zM795 80q-8 -8 -16 0l-199 209q-8 8 0 16t16 0l199 -209q8 -8 0 -16zM837 121q-8 -8 -16 0l-200 209q-8 8 0 16t16 0l200 -209q8 -8 0 -16z" />
    <glyph glyph-name="yinsi" unicode="&#xe614;" 
d="M860 442h-87v109q0 108 -76.5 184.5t-185 76.5t-185 -76.5t-76.5 -184.5v-109h-87q-27 0 -46 -19.5t-19 -46.5v-523q0 -27 19 -46t46 -19h697q27 0 46.5 19t19.5 46v523q0 27 -19.5 46.5t-46.5 19.5v0v0zM294 551q0 90 63.5 153.5t154 63.5t154 -63.5t63.5 -153.5v-109
h-435v109v0v0zM882 -147q0 -9 -6.5 -15t-15.5 -6h-697q-9 0 -15.5 6t-6.5 15v523q0 9 6.5 15.5t15.5 6.5h697q9 0 15.5 -6.5t6.5 -15.5v-523v0v0zM512 224q-28 0 -47 -19.5t-19 -46.5q0 -28 22 -48v-61q0 -18 13 -30.5t31 -12.5t30.5 12.5t12.5 30.5v61q22 20 22 48
q0 27 -19 46.5t-46 19.5v0v0zM512 224z" />
    <glyph glyph-name="iphone" unicode="&#xe9a9;" 
d="M719 -120h-414q-62 0 -105.5 43.5t-43.5 104.5v712q0 61 43.5 104.5t105.5 43.5h414q62 0 105.5 -43.5t43.5 -104.5v-712q0 -61 -43.5 -104.5t-105.5 -43.5zM828 750q0 40 -29 69t-70 29h-434q-41 0 -70 -29t-29 -69v0h632zM828 710h-632v-583h632v583zM828 88h-632v-70
q0 -40 29 -69t70 -29h434q41 0 70 29t29 69v70zM621 9h-208q-8 0 -14 5.5t-6 14t6 14t14 5.5h208q8 0 13.5 -5.5t5.5 -14t-5.5 -14t-13.5 -5.5z" />
    <glyph glyph-name="delete" unicode="&#xe659;" horiz-adv-x="1092" 
d="M1069 649h-1046q-10 0 -16.5 6.5t-6.5 16t6.5 16t16.5 6.5h208v65q0 57 40 97t97 40h340q56 0 96 -40t40 -97v-65h225q9 0 15.5 -6.5t6.5 -16t-6.5 -16t-15.5 -6.5zM801 779q0 29 -21.5 50.5t-52.5 21.5h-368q-31 0 -56.5 -21.5t-25.5 -50.5v-85h524v85zM336 89
q-9 0 -16 7t-7 16v398q0 10 7 16.5t16 6.5v0q10 0 16.5 -6.5t6.5 -16.5v-398q0 -9 -6.5 -16t-16.5 -7v0zM541 89q-10 0 -16.5 7t-6.5 16v398q0 10 6.5 16.5t16.5 6.5v0q9 0 16 -6.5t7 -16.5v-398q0 -9 -7 -16t-16 -7v0zM746 89q-9 0 -16 7t-7 16v398q0 10 7 16.5t16 6.5v0
q10 0 16.5 -6.5t6.5 -16.5v-398q0 -9 -6.5 -16t-16.5 -7v0zM198 -11q0 -29 20 -49t48 -20h546q28 0 48 20t20 49v655h46v-658q0 -47 -33.5 -80.5t-80.5 -33.5h-546q-47 0 -80 33.5t-33 80.5v658h45v-655z" />
    <glyph glyph-name="shangmen" unicode="&#xe62e;" 
d="M728.5 419q-15.5 0 -27 -11t-11.5 -26v-63q0 -15 11.5 -26t27 -11t26.5 11t11 26v63q0 15 -11 26t-26.5 11zM824 753h-1l-386 76q-7 2 -14 2q-25 0 -41.5 -16t-16.5 -39v-54l-140 23q-7 1 -14 1q-25 0 -41.5 -13t-16.5 -31v-636q0 -18 16.5 -31t41.5 -13q7 0 14 1l140 23
v-54q0 -23 16.5 -39t41.5 -16q7 0 14 2l387 76q19 4 33 21t14 38v620q0 21 -14 38t-33 21zM365 78l-148 -24h-6q-19 0 -19 12v636q0 12 19 12h6l148 -24v-612zM832 74q0 -7 -5 -13.5t-11 -7.5l-387 -76q-3 -1 -6 -1q-19 0 -19 16v784q0 16 19 16q3 0 6 -1l387 -76
q6 -1 11 -7.5t5 -13.5v-620z" />
    <glyph glyph-name="success" unicode="&#xe8ee;" 
d="M512 886q-102 0 -195 -39.5t-160.5 -107t-107 -160.5t-39.5 -195t39.5 -195t107 -160.5t160.5 -107t195 -39.5t195 39.5t160.5 107t107 160.5t39.5 195t-39.5 195t-107 160.5t-160.5 107t-195 39.5v0zM825 507l-351 -339q-7 -6 -16 -11q-17 -12 -37.5 -10t-35.5 16
l-151 151q-16 17 -16 40.5t16.5 40t40 16.5t39.5 -17l113 -113l318 306q17 17 40 17t39.5 -16.5t16.5 -40t-16 -40.5v0zM825 507z" />
    <glyph glyph-name="plus" unicode="&#xe607;" 
d="M512 822q89 0 170 -34.5t140 -93.5t93.5 -140t34.5 -170t-34.5 -170t-93.5 -140t-140 -93.5t-170 -34.5t-170 34.5t-140 93.5t-93.5 140t-34.5 170t34.5 170t93.5 140t140 93.5t170 34.5zM512 896q-104 0 -199 -40.5t-163.5 -109t-109 -163.5t-40.5 -199t40.5 -199
t109 -163.5t163.5 -109t199 -40.5q139 0 257 68.5t186.5 186.5t68.5 257q0 104 -40.5 199t-109 163.5t-163.5 109t-199 40.5v0zM736 363q0 -8 -5.5 -13.5t-13.5 -5.5h-410q-8 0 -13.5 5.5t-5.5 13.5v42q0 8 5.5 13.5t13.5 5.5h410q8 0 13.5 -5.5t5.5 -13.5v-42zM533 608
q8 0 13.5 -5.5t5.5 -13.5v-410q0 -8 -5.5 -13.5t-13.5 -5.5h-42q-8 0 -13.5 5.5t-5.5 13.5v410q0 8 5.5 13.5t13.5 5.5h42z" />
    <glyph glyph-name="mac" unicode="&#xe630;" 
d="M829 714q15 0 26 -11t11 -27v-487q0 -15 -11 -26t-26 -11h-654q-15 0 -25.5 11t-10.5 26v487q0 16 10.5 27t25.5 11h654zM829 766h-654q-35 0 -60.5 -26.5t-25.5 -63.5v-487q0 -37 25.5 -63t60.5 -26h654q36 0 61.5 26t25.5 63v487q0 37 -25.5 63.5t-61.5 26.5zM474 140
v-131h57v131h-57zM357 -27h291q11 0 19.5 8.5t8.5 20.5t-8.5 20t-19.5 8h-291q-12 0 -20 -8t-8 -20t8 -20.5t20 -8.5v0zM150 236h705q11 0 19.5 8t8.5 20t-8.5 20.5t-19.5 8.5h-705q-12 0 -20 -8.5t-8 -20.5t8 -20t20 -8v0z" />
    <glyph glyph-name="minus" unicode="&#xe90a;" horiz-adv-x="1027" 
d="M513 -128q-103 0 -196 38t-167 111q-73 74 -111.5 170t-38.5 193t38.5 193t111.5 170q74 73 167 111t196 38t196.5 -38t166.5 -111q74 -74 112.5 -170t38.5 -193t-38.5 -193t-112.5 -170q-73 -73 -166.5 -111t-196.5 -38zM513 811q-179 0 -303 -124q-61 -61 -93 -141.5
t-32 -161.5t32 -161.5t93 -141.5q124 -124 303 -124t303 124q82 82 111 191.5t0 219t-111 191.5q-122 128 -303 128zM726 341h-426q-19 0 -31 12t-12 31t12 31t31 12h426q20 0 31.5 -12t11.5 -31t-11.5 -31t-31.5 -12z" />
    <glyph glyph-name="exchange" unicode="&#xe619;" 
d="M898 287q-4 0 -7 1q-10 3 -15 13t-2 21q7 29 7 59q0 92 -61.5 157.5t-148.5 65.5h-264q-8 0 -14 -6t-6 -15v-40q0 -15 -10 -15q-4 0 -9 3l-128 84q-9 6 -9 13.5t8 13.5l129 88q5 4 10 4q9 0 9 -15v-41q0 -8 6 -14t14 -6h263q109 0 185 -81q77 -81 77 -196q0 -37 -10 -74
q-5 -20 -24 -20zM668 29q-9 0 -9 14v41q0 9 -6 15t-14 6h-286q-108 0 -184 80q-77 81 -77 196q0 82 42 150q7 12 22 12q7 0 13 -4q8 -6 10.5 -17t-3.5 -20q-33 -55 -33 -121q0 -92 61.5 -157t148.5 -65h286q8 0 14 6t6 14v41q0 15 10 15q4 0 10 -4l127 -84q9 -5 9 -13
t-8 -14l-129 -88q-5 -3 -10 -3z" />
    <glyph glyph-name="baoyou" unicode="&#xe60c;" 
d="M979 422l-120 136q-17 19 -46 32t-54 13h-100v82q0 30 -21 51t-51 21h-509q-30 0 -51.5 -21t-21.5 -51v-375q0 -29 21.5 -50.5t51.5 -21.5h11v-108q0 -29 21 -50.5t51 -21.5h70q4 -47 39 -79.5t83 -32.5t83 32.5t39 79.5h171q4 -47 39 -79.5t83 -32.5t83 32.5t39 79.5h56
q30 0 51.5 21.5t21.5 50.5v167q-3 55 -11.5 79t-28.5 46zM78 280q-13 0 -21.5 9t-8.5 21v375q0 12 8.5 21t21.5 9h509q12 0 20.5 -9t8.5 -21v-375q0 -12 -8.5 -21t-20.5 -9h-509zM353 -12q-33 0 -56.5 23.5t-23.5 56.5t23.5 56.5t56.5 23.5t56.5 -23.5t23.5 -56.5
t-23.5 -56.5t-56.5 -23.5zM768 -12q-33 0 -56.5 23.5t-23.5 56.5t23.5 56.5t56.5 23.5t56.5 -23.5t23.5 -56.5t-23.5 -56.5t-56.5 -23.5zM976 256v-126q0 -12 -8.5 -21t-21.5 -9h-60q-10 40 -43 65.5t-75 25.5t-75 -25.5t-43 -65.5h-179q-11 40 -43.5 65.5t-74.5 25.5
t-75 -25.5t-43 -65.5h-74q-12 0 -21 9t-9 21v108h456q30 0 51 21t21 51v251h100q16 0 36.5 -9.5t31.5 -21.5l133 -149q17 -24 16 -125zM819 487q-11 19 -34 19h-49q-12 0 -20.5 -8.5t-8.5 -20.5v-208q0 -12 8.5 -20.5t20.5 -8.5h127q12 0 20.5 8.5t8.5 20.5v74q0 19 -10 35z
M863 269h-127v208h49q6 0 9 -5l63 -109q6 -9 6 -19v-75z" />
    <glyph glyph-name="zhijian" unicode="&#xe649;" 
d="M917 755l-40 1q-9 0 -28 1.5t-63 11t-83 24.5q-40 17 -78.5 37t-52.5 29.5t-20 13.5l-24 18q-7 5 -16 5t-16 -5l-24 -18q-2 -2 -18.5 -12.5t-54.5 -30.5t-78 -37q-39 -15 -83 -24.5t-63 -11t-28 -1.5l-40 -1q-11 0 -18.5 -8t-7.5 -19v-408q0 -74 41 -154.5t116 -151.5
q69 -66 142.5 -104t131.5 -38q59 0 132.5 38t141.5 104q75 71 116 151.5t41 154.5v408q0 11 -7.5 19t-18.5 8zM888 323q0 -63 -36.5 -133t-103.5 -134q-59 -56 -124 -91t-112 -35t-112 35t-124 91q-67 64 -103.5 134t-36.5 133v380h13l6.5 0.5t16.5 1.5t24 3t31 5t35 7
t39 10.5t41 14.5q43 18 84.5 40t56.5 32t21 15l8 6l8 -6q64 -47 162 -87q43 -17 92 -27.5t70 -12.5t31 -2h13v-380v0zM677 528l-227 -226l-103 103q-8 8 -20 8t-20.5 -8.5t-8.5 -20.5t8 -21l123 -123h0.5h0.5q8 -9 20 -9t21 9v0v0l247 247q8 8 8 20t-8.5 21t-20.5 9t-20 -9z
" />
    <glyph glyph-name="user" unicode="&#xe63f;" 
d="M614 331h-204q-94 0 -173 -45.5t-125.5 -124t-46.5 -170.5v-20q0 -24 11 -41t37.5 -27.5t50.5 -16.5t72.5 -9t79.5 -3.5t94 -0.5v0h204q46 0 69 0.5t62.5 1.5t60 3.5t49.5 7t44 12t31 17.5t22.5 24t6.5 32v20q0 92 -46.5 170.5t-125.5 124t-173 45.5zM502 357
q113 0 193 78.5t80 190t-80 190.5t-193 79t-193 -79t-80 -190.5t80 -190t193 -78.5z" />
    <glyph glyph-name="update" unicode="&#xe618;" 
d="M748 887q-10 0 -16 -7l-195 -206q-6 -7 -6 -16.5t7 -16t16.5 -6t16.5 7.5l155 163v-903q0 -9 7 -16t15.5 -7t15.5 7t7 16v903l155 -163q6 -7 16 -7.5t17 6.5q7 6 7 16t-6 16l-195 206q-7 7 -17 7zM288 544q-8 -1 -14 -7l-195 -206q-6 -7 -6 -16q0 -10 7 -17q7 -6 16.5 -6
t16.5 7l154 164v-560q0 -9 7.5 -16t16 -7t15.5 7t7 16v560l155 -164q6 -7 16 -7t16.5 6t7 16t-5.5 17l-195 206q-8 8 -19 7z" />
  </font>
</defs>
</svg>
